<?xml version="1.0" encoding="UTF-8" standalone="no"?>
<svg
   xmlns:dc="http://purl.org/dc/elements/1.1/"
   xmlns:cc="http://creativecommons.org/ns#"
   xmlns:rdf="http://www.w3.org/1999/02/22-rdf-syntax-ns#"
   xmlns:svg="http://www.w3.org/2000/svg"
   xmlns="http://www.w3.org/2000/svg"
   viewBox="0 0 107.09333 105.04"
   height="105.04"
   width="107.09333"
   xml:space="preserve"
   id="svg2"
   version="1.1"><metadata
     id="metadata8"><rdf:RDF><cc:Work
         rdf:about=""><dc:format>image/svg+xml</dc:format><dc:type
           rdf:resource="http://purl.org/dc/dcmitype/StillImage" /></cc:Work></rdf:RDF></metadata><defs
     id="defs6" /><g
     transform="matrix(1.3333333,0,0,-1.3333333,0,105.04)"
     id="g10"><g
       transform="scale(0.1)"
       id="g12"><path
         id="path14"
         style="fill:#22234e;fill-opacity:1;fill-rule:nonzero;stroke:none"
         d="m 18.0117,424.797 26.3281,-0.285 c 0.3946,-0.008 0.6485,-0.293 0.6446,-0.735 l -0.1328,-11.211 c 0,-0.418 -0.2618,-0.711 -0.6524,-0.703 l -27.0469,0.293 c -4.3945,0.063 -6.9531,-2.644 -6.996,-6.734 -0.0508,-4.25 2.4492,-6.789 6.8476,-6.836 l 27.0391,-0.305 c 0.3906,0 0.6445,-0.293 0.6406,-0.722 l -0.125,-11.211 c -0.0039,-0.43 -0.2734,-0.711 -0.6523,-0.711 l -26.336,0.293 C 5.85938,386.063 -0.136719,393.887 0,405.527 c 0.125,11.856 6.30078,19.403 18.0117,19.27" /><path
         id="path16"
         style="fill:#22234e;fill-opacity:1;fill-rule:nonzero;stroke:none"
         d="m 45.2695,366.512 c 0.3789,0.058 0.6797,-0.184 0.7461,-0.606 l 1.6055,-10.429 c 0.0781,-0.508 -0.0391,-1.024 -0.4531,-1.305 l -22.375,-18.363 0.0429,-0.274 24.6172,3.801 c 0.3907,0.059 0.6836,-0.188 0.7539,-0.617 l 1.5274,-9.918 c 0.0664,-0.434 -0.1406,-0.754 -0.5274,-0.813 L 9.00391,321.453 C 8.625,321.406 8.32031,321.648 8.25,322.07 l -1.60156,10.442 c -0.07031,0.484 0.03906,1.011 0.45312,1.297 l 22.33204,18.195 -0.0703,0.426 -24.5508,-3.789 c -0.37891,-0.055 -0.67969,0.175 -0.73828,0.605 l -1.53516,9.942 c -0.07031,0.41 0.14063,0.742 0.52735,0.8 l 42.20309,6.524" /><path
         id="path18"
         style="fill:#22234e;fill-opacity:1;fill-rule:nonzero;stroke:none"
         d="m 56.3203,308.484 c 0.3633,0.11 0.6914,-0.097 0.8125,-0.515 l 3.1094,-10.774 c 0.125,-0.41 -0.043,-0.761 -0.418,-0.867 L 18.8477,284.48 c -0.3711,-0.105 -0.7032,0.098 -0.8204,0.52 l -3.1093,10.77 c -0.125,0.421 0.0429,0.761 0.414,0.871 l 40.9883,11.843" /><path
         id="path20"
         style="fill:#22234e;fill-opacity:1;fill-rule:nonzero;stroke:none"
         d="m 31.2695,248.035 c -0.2031,0.473 -0.1367,0.813 0.2188,1.113 l 33.0351,31.211 c 0.3008,0.293 0.711,0.157 0.9102,-0.308 l 4.6562,-10.84 c 0.1915,-0.461 0.1329,-0.793 -0.2304,-1.117 l -20.9453,-18.485 0.0781,-0.195 27.707,2.766 c 0.4766,0.047 0.7656,-0.141 0.9649,-0.61 l 4.625,-10.761 C 82.4844,240.352 82.2773,240.02 81.8633,240 l -45.3477,-2.539 c -0.4765,-0.051 -0.7695,0.144 -0.9687,0.605 l -4.2774,9.969" /><path
         id="path22"
         style="fill:#22234e;fill-opacity:1;fill-rule:nonzero;stroke:none"
         d="m 89.9609,225.586 c 0.3282,0.203 0.6954,0.098 0.9297,-0.266 l 16.9254,-27.156 c 0.227,-0.371 0.164,-0.754 -0.171,-0.957 l -7.079,-4.402 c -0.332,-0.207 -0.7027,-0.102 -0.9254,0.269 l -10.3945,16.653 c -0.1484,0.242 -0.332,0.3 -0.5547,0.164 l -5.6562,-3.512 c -0.2227,-0.141 -0.25,-0.332 -0.1055,-0.578 l 8.5273,-13.672 c 0.2344,-0.363 0.1602,-0.75 -0.1679,-0.949 l -6.9258,-4.317 c -0.3203,-0.191 -0.6914,-0.086 -0.9219,0.274 l -8.5195,13.672 c -0.1563,0.246 -0.3399,0.304 -0.5586,0.168 l -5.9844,-3.719 c -0.2226,-0.149 -0.2539,-0.332 -0.1055,-0.578 l 10.3868,-16.66 c 0.2265,-0.364 0.1679,-0.754 -0.1641,-0.957 l -7.082,-4.407 c -0.3282,-0.203 -0.7071,-0.097 -0.9375,0.274 l -16.9258,27.148 c -0.2266,0.371 -0.1563,0.754 0.168,0.957 l 36.2421,22.551" /><path
         id="path24"
         style="fill:#22234e;fill-opacity:1;fill-rule:nonzero;stroke:none"
         d="m 124.633,154.172 c 2.152,1.851 2.137,4.676 -0.203,7.398 l -4.391,5.141 c -0.195,0.215 -0.383,0.23 -0.574,0.066 l -6.477,-5.566 c -0.195,-0.164 -0.195,-0.363 -0.008,-0.574 l 4.387,-5.141 c 2.328,-2.723 5.106,-3.183 7.266,-1.324 z m -22.09,-19.848 c -0.418,0.489 -0.414,0.781 -0.215,1.242 l 6.567,15.403 -3.032,3.551 c -0.187,0.214 -0.379,0.238 -0.574,0.07 l -11.0781,-9.531 c -0.3007,-0.254 -0.6836,-0.207 -0.9648,0.125 l -7.2891,8.515 c -0.2734,0.332 -0.2617,0.715 0.0235,0.969 L 118.352,182.5 c 0.3,0.254 0.679,0.203 0.961,-0.129 l 12.937,-15.113 c 7.285,-8.52 6.98,-17.207 0.711,-22.61 -4.172,-3.574 -9.43,-4.304 -14.563,-1.906 l -6.855,-17.73 c -0.156,-0.422 -0.598,-0.508 -0.918,-0.129 l -8.082,9.441" /><path
         id="path26"
         style="fill:#22234e;fill-opacity:1;fill-rule:nonzero;stroke:none"
         d="m 130.488,112.91 c -0.113,0.43 0.125,0.82 0.61,0.84 l 9.382,1.035 c 0.422,0.059 0.75,-0.226 0.797,-0.597 0.735,-3.692 2.899,-8.243 6.621,-11.407 3.457,-2.9294 6.348,-3.1716 7.942,-1.308 1.223,1.425 0.976,3.261 -2.317,6.816 l -1.753,1.914 c -7.168,7.871 -8.782,14.848 -3.454,21.106 5.329,6.25 14.313,5.828 22.747,-1.329 5.148,-4.367 8.742,-9.882 10.16,-14.992 0.101,-0.418 -0.051,-0.722 -0.524,-0.816 l -8.679,-1.899 c -0.426,-0.054 -0.747,0.118 -0.891,0.508 -1.285,3.813 -3.281,7.11 -6.234,9.629 -2.743,2.317 -5.122,2.309 -6.5,0.684 -1.254,-1.485 -0.856,-3.446 2.371,-6.864 l 1.757,-1.914 c 7.282,-7.968 8.668,-14.7574 3.258,-21.1129 -5.285,-6.1992 -14.398,-6.2773 -24.367,2.1875 -6.078,5.1644 -10.238,12.6834 -10.926,17.5194" /><path
         id="path28"
         style="fill:#22234e;fill-opacity:1;fill-rule:nonzero;stroke:none"
         d="m 199.988,106.008 c 0.215,0.332 0.598,0.387 0.965,0.144 l 9.363,-6.1637 c 0.368,-0.2305 0.465,-0.6016 0.25,-0.9336 L 187.168,63.3398 c -0.215,-0.332 -0.598,-0.3906 -0.957,-0.1562 l -9.375,6.1602 c -0.359,0.246 -0.453,0.6171 -0.242,0.9375 l 23.394,35.7267" /><path
         id="path30"
         style="fill:#22234e;fill-opacity:1;fill-rule:nonzero;stroke:none"
         d="m 218.336,44.8125 -0.199,0.0977 c -0.129,0.0586 -0.164,0.1484 -0.239,0.332 -0.027,0.0898 -0.07,0.1797 -0.007,0.293 l 0.078,0.1796 14.558,29.4297 c 0.078,0.1758 0.012,0.3516 -0.148,0.5078 l -0.066,0.0391 -10.758,5.3242 -0.2,0.0977 c -0.128,0.0664 -0.164,0.1484 -0.203,0.2422 l -0.031,0.0898 c 0,0 0.024,0.0586 -0.043,0.086 -0.004,0.1484 0.055,0.2656 0.113,0.3828 l 3.891,7.8828 c 0.145,0.2929 0.453,0.4258 0.738,0.3594 l 0.196,-0.0977 33.648,-16.6523 c 0.195,-0.0977 0.285,-0.2227 0.356,-0.4102 0,0 0.043,-0.0742 0.019,-0.1367 0.027,-0.0977 0.039,-0.2422 -0.019,-0.3594 l -3.899,-7.8828 c -0.086,-0.1758 -0.23,-0.3125 -0.418,-0.3594 -0.098,-0.0312 -0.254,-0.0195 -0.383,0.0391 l -0.125,0.0664 -10.769,5.332 c -0.125,0.0625 -0.188,0.0899 -0.285,0.0625 -0.059,0.0391 -0.086,-0.0234 -0.188,-0.039 l -0.082,-0.1875 -14.555,-29.4336 -0.086,-0.1758 c -0.148,-0.1485 -0.246,-0.1641 -0.492,-0.1875 -0.09,-0.0274 -0.222,0.039 -0.347,0.1015 l -10.055,4.9766" /><path
         id="path32"
         style="fill:#22234e;fill-opacity:1;fill-rule:nonzero;stroke:none"
         d="m 286.348,35.1445 -0.032,14.4453 -0.203,0.0665 -8.777,-11.5508 z m -2.543,28.6953 c 0.254,0.3086 0.609,0.4766 1.09,0.3086 l 11.128,-3.6523 c 0.481,-0.1523 0.676,-0.4844 0.688,-0.8984 l 2.41,-45.7305 c 0.016,-0.4219 -0.269,-0.5977 -0.683,-0.4609 l -11.27,3.6914 c -0.473,0.1601 -0.668,0.4921 -0.684,0.9101 l -0.07,7.168 -15.098,4.9531 -4.304,-5.7422 c -0.254,-0.3242 -0.61,-0.4804 -1.082,-0.3242 l -11.211,3.6719 c -0.403,0.1367 -0.531,0.4492 -0.278,0.7734 l 29.364,35.332" /><path
         id="path34"
         style="fill:#22234e;fill-opacity:1;fill-rule:nonzero;stroke:none"
         d="m 320.273,14.0039 c -0.308,0.3125 -0.312,0.7695 0.094,1.0352 l 7.465,5.75 c 0.336,0.2734 0.762,0.2187 1.008,-0.086 2.539,-2.7656 6.746,-5.5195 11.566,-6.2773 4.477,-0.7149 7.074,0.5859 7.465,3.0039 0.293,1.8555 -0.859,3.2851 -5.516,4.6016 l -2.5,0.7304 c -10.214,2.9922 -15.214,8.1055 -13.917,16.2227 1.289,8.1054 9.179,12.4219 20.101,10.7031 6.664,-1.0547 12.613,-3.8984 16.465,-7.5195 0.309,-0.3125 0.332,-0.6446 -0.016,-0.9883 l -6.425,-6.1211 c -0.333,-0.2617 -0.704,-0.2852 -1.028,-0.0313 -3.07,2.5782 -6.5,4.375 -10.328,4.9844 -3.539,0.5547 -5.566,-0.6953 -5.898,-2.8047 -0.301,-1.9257 1.058,-3.3789 5.586,-4.6172 l 2.503,-0.7265 c 10.36,-3.0156 15.075,-8.086 13.754,-16.3281 -1.289,-8.04692 -9.031,-12.83989 -21.929,-10.80082 -7.879,1.23437 -15.344,5.50002 -18.45,9.26952" /><path
         id="path36"
         style="fill:#22234e;fill-opacity:1;fill-rule:nonzero;stroke:none"
         d="M 440.152,19.2383 434.43,32.5 434.215,32.4883 430.699,18.4063 Z M 426.48,44.5977 c 0.118,0.4023 0.372,0.6836 0.879,0.7226 l 11.68,1.0274 c 0.496,0.039 0.801,-0.1875 0.996,-0.5664 L 460.289,4.70703 C 460.465,4.32422 460.27,4.05469 459.84,4.01172 L 448.023,2.97656 c -0.488,-0.03906 -0.8,0.1875 -0.976,0.57032 l -2.91,6.55862 -15.821,-1.38675 -1.679,-6.96094 C 426.52,1.35547 426.266,1.0625 425.758,1.02344 L 414.02,0 c -0.43,-0.0390625 -0.665,0.195313 -0.567,0.59375 L 426.48,44.5977" /><path
         id="path38"
         style="fill:#22234e;fill-opacity:1;fill-rule:nonzero;stroke:none"
         d="m 472.262,50.4766 c -0.098,0.3711 0.117,0.7031 0.527,0.8007 l 10.879,2.7149 c 0.43,0.1016 0.762,-0.0859 0.859,-0.457 l 7.969,-31.836 c 0.059,-0.2539 0.234,-0.3437 0.527,-0.2734 l 20.079,5.0078 c 0.41,0.0977 0.742,-0.0859 0.839,-0.457 l 2.137,-8.5274 c 0.11,-0.3789 -0.125,-0.6914 -0.535,-0.8008 L 483.461,8.66016 c -0.418,-0.10547 -0.75,0.07031 -0.848,0.44922 L 472.262,50.4766" /><path
         id="path40"
         style="fill:#22234e;fill-opacity:1;fill-rule:nonzero;stroke:none"
         d="m 547.457,37.2852 5.313,2.2187 c 3.652,1.5195 4.843,3.9024 3.593,6.8906 -1.172,2.8047 -3.75,3.7618 -7.402,2.2383 l -5.305,-2.2187 c -0.261,-0.1055 -0.351,-0.2735 -0.242,-0.5157 l 3.496,-8.4296 c 0.117,-0.2344 0.281,-0.2891 0.547,-0.1836 z m -2.09,18.3281 c 3.516,1.4648 4.785,3.6133 3.613,6.418 -1.191,2.871 -3.527,3.4375 -7.109,1.9414 l -4.707,-1.961 c -0.266,-0.1094 -0.351,-0.2851 -0.254,-0.5273 l 3.192,-7.6446 c 0.097,-0.2382 0.285,-0.3046 0.539,-0.1875 z m -23.34,8.7109 c -0.148,0.3555 0.02,0.7149 0.418,0.8711 l 18.371,7.6641 c 10.079,4.2109 16.543,1.7773 19.227,-4.668 1.75,-4.1797 0.832,-7.9883 -1.863,-11.0117 l 0.039,-0.1211 c 3.789,0.2461 8.203,-1.9141 10.156,-6.6289 3.32,-7.9492 -1.348,-14.3086 -10.84,-18.2734 l -18.164,-7.5782 c -0.402,-0.164 -0.762,-0.0273 -0.918,0.3242 l -16.426,39.4219" /><path
         id="path42"
         style="fill:#22234e;fill-opacity:1;fill-rule:nonzero;stroke:none"
         d="M 586.578,64.5508 572.75,86.9414 c -0.195,0.3242 -0.098,0.7031 0.273,0.918 l 9.52,5.8906 c 0.383,0.2227 0.754,0.1563 0.969,-0.1758 l 14.199,-23 c 2.305,-3.7304 5.957,-4.4531 9.434,-2.2929 3.613,2.2265 4.414,5.6835 2.109,9.4335 l -14.211,22.9882 c -0.203,0.332 -0.086,0.692 0.266,0.93 l 9.531,5.879 c 0.371,0.222 0.762,0.152 0.957,-0.176 L 619.625,84.9492 C 625.777,75 622.379,65.7539 612.477,59.6484 602.398,53.4297 592.73,54.5977 586.578,64.5508" /><path
         id="path44"
         style="fill:#22234e;fill-opacity:1;fill-rule:nonzero;stroke:none"
         d="m 649.586,125.105 c -1.856,2.153 -4.668,2.114 -7.383,-0.234 l -5.117,-4.41 c -0.195,-0.188 -0.234,-0.383 -0.059,-0.57 l 5.567,-6.461 c 0.176,-0.2 0.371,-0.2 0.586,-0.012 l 5.097,4.414 c 2.715,2.352 3.164,5.129 1.309,7.273 z m 19.863,-22.019 c -0.488,-0.422 -0.781,-0.41 -1.23,-0.215 l -15.391,6.516 -3.535,-3.059 c -0.215,-0.187 -0.234,-0.383 -0.07,-0.574 l 9.543,-11.047 c 0.254,-0.3047 0.195,-0.6757 -0.118,-0.957 l -8.476,-7.3359 c -0.332,-0.2735 -0.723,-0.2735 -0.969,0.0195 l -27.859,32.2774 c -0.254,0.293 -0.207,0.676 0.117,0.969 l 15.059,12.996 c 8.457,7.324 17.128,7.051 22.539,0.793 3.593,-4.164 4.336,-9.406 1.941,-14.543 l 17.727,-6.809 c 0.41,-0.144 0.507,-0.586 0.136,-0.918 l -9.414,-8.113" /><path
         id="path46"
         style="fill:#22234e;fill-opacity:1;fill-rule:nonzero;stroke:none"
         d="m 678.688,142.234 c -4.61,3.879 -6.407,5.762 -8.243,8.821 -3.828,6.601 -2.023,14.383 3.575,21.043 5.781,6.867 12.539,9.062 18.593,7.531 0.496,-0.125 0.703,-0.488 0.567,-0.949 l -3.282,-9.442 c -0.136,-0.461 -0.507,-0.703 -0.898,-0.652 -2.891,0.281 -5.039,-0.449 -7.207,-3.051 -2.129,-2.519 -2.422,-5.086 -1.094,-7.344 0.821,-1.425 2.207,-2.793 6.211,-6.171 4.024,-3.379 5.703,-4.508 7.149,-5.079 2.48,-0.878 5.007,-0.086 7.265,2.618 2.051,2.414 2.715,5.129 1.485,7.199 -0.391,0.711 -0.996,1.406 -1.875,2.156 -0.215,0.168 -0.411,0.141 -0.586,-0.074 l -3.418,-4.067 c -0.274,-0.332 -0.664,-0.386 -0.957,-0.136 l -5.606,4.718 c -0.293,0.243 -0.312,0.633 -0.039,0.965 l 11.25,13.36 c 0.274,0.332 0.664,0.383 0.957,0.129 l 2.578,-2.168 c 3.223,-2.707 5.555,-5.059 6.981,-7.578 3.937,-6.692 2.511,-14.512 -3.211,-21.34 -5.606,-6.649 -12.961,-9.754 -20.117,-7.11 -3.313,1.289 -5.469,2.735 -10.078,6.621" /><path
         id="path48"
         style="fill:#22234e;fill-opacity:1;fill-rule:nonzero;stroke:none"
         d="m 698.277,201.086 c -0.332,0.203 -0.39,0.586 -0.175,0.953 l 16.679,27.285 c 0.235,0.371 0.594,0.481 0.938,0.274 l 7.109,-4.344 c 0.32,-0.203 0.391,-0.586 0.176,-0.949 L 712.77,207.559 c -0.157,-0.246 -0.118,-0.43 0.097,-0.567 l 5.684,-3.469 c 0.215,-0.136 0.41,-0.085 0.547,0.168 l 8.398,13.739 c 0.234,0.363 0.606,0.468 0.926,0.273 l 6.965,-4.246 c 0.312,-0.203 0.39,-0.574 0.156,-0.945 l -8.391,-13.735 c -0.144,-0.254 -0.105,-0.437 0.11,-0.586 l 6.015,-3.671 c 0.215,-0.125 0.391,-0.067 0.547,0.175 l 10.235,16.739 c 0.234,0.371 0.605,0.48 0.918,0.277 l 7.128,-4.348 c 0.333,-0.207 0.391,-0.578 0.176,-0.949 l -16.679,-27.281 c -0.235,-0.371 -0.606,-0.492 -0.938,-0.278 l -36.387,22.231" /><path
         id="path50"
         style="fill:#22234e;fill-opacity:1;fill-rule:nonzero;stroke:none"
         d="m 724.176,246.047 c -0.352,0.152 -0.488,0.516 -0.313,0.918 l 4.043,9.754 c 0.196,0.469 0.567,0.859 1.074,0.886 l 28.653,4.094 0.117,0.266 -23.008,9.519 c -0.371,0.149 -0.5,0.52 -0.332,0.907 l 3.856,9.297 c 0.168,0.402 0.519,0.578 0.871,0.421 l 39.453,-16.328 c 0.359,-0.144 0.488,-0.508 0.332,-0.91 l -4.063,-9.766 c -0.187,-0.457 -0.566,-0.847 -1.054,-0.878 l -28.555,-3.985 -0.156,-0.398 22.949,-9.5 c 0.352,-0.149 0.488,-0.508 0.312,-0.903 l -3.847,-9.304 c -0.176,-0.403 -0.52,-0.567 -0.879,-0.418 l -39.453,16.328" /><path
         id="path52"
         style="fill:#22234e;fill-opacity:1;fill-rule:nonzero;stroke:none"
         d="m 781.254,289.578 c -0.332,-0.281 -0.789,-0.242 -1.024,0.18 l -5.136,7.887 c -0.254,0.363 -0.156,0.785 0.156,0.996 2.957,2.316 6.035,6.308 7.188,11.054 1.054,4.407 -0.02,7.102 -2.403,7.676 -1.836,0.442 -3.34,-0.594 -5.039,-5.137 l -0.918,-2.437 c -3.789,-9.961 -9.277,-14.543 -17.265,-12.617 -7.989,1.922 -11.661,10.125 -9.083,20.886 1.583,6.563 4.883,12.278 8.809,15.829 0.332,0.293 0.664,0.285 0.977,-0.079 l 5.586,-6.89 c 0.253,-0.363 0.234,-0.727 -0.039,-1.028 -2.825,-2.871 -4.883,-6.14 -5.782,-9.914 -0.84,-3.496 0.254,-5.601 2.324,-6.101 1.875,-0.457 3.446,0.793 5.04,5.207 l 0.918,2.437 c 3.828,10.102 9.257,14.407 17.363,12.453 7.91,-1.906 12.09,-10.011 9.023,-22.722 -1.855,-7.754 -6.691,-14.867 -10.695,-17.68" /><path
         id="path54"
         style="fill:#22234e;fill-opacity:1;fill-rule:nonzero;stroke:none"
         d="m 756.109,355.09 c -0.371,0.039 -0.605,0.348 -0.546,0.777 l 1.269,11.137 c 0.059,0.426 0.352,0.68 0.723,0.641 l 42.441,-4.813 c 0.379,-0.039 0.606,-0.363 0.547,-0.781 l -1.262,-11.145 c -0.047,-0.429 -0.34,-0.683 -0.73,-0.633 l -42.442,4.817" /><path
         id="path56"
         style="fill:#22234e;fill-opacity:1;fill-rule:nonzero;stroke:none"
         d="m 797.164,386.102 c -0.254,-0.372 -0.703,-0.438 -1.035,-0.086 l -6.934,6.394 c -0.312,0.274 -0.332,0.703 -0.058,0.996 2.285,2.973 4.304,7.602 4.258,12.481 -0.059,4.535 -1.758,6.875 -4.219,6.855 -1.875,-0.019 -3.086,-1.394 -3.613,-6.219 l -0.293,-2.589 c -1.25,-10.586 -5.45,-16.375 -13.672,-16.465 -8.203,-0.098 -13.789,6.957 -13.907,18.019 -0.078,6.746 1.739,13.098 4.668,17.508 0.254,0.363 0.567,0.442 0.957,0.156 l 7.129,-5.3 c 0.313,-0.286 0.391,-0.657 0.196,-1.008 -2.032,-3.477 -3.223,-7.149 -3.184,-11.024 0.039,-3.601 1.602,-5.382 3.738,-5.359 1.946,0.027 3.157,1.617 3.625,6.297 l 0.293,2.586 c 1.25,10.722 5.45,16.23 13.789,16.332 8.164,0.094 14.18,-6.742 14.317,-19.817 0.078,-7.976 -2.871,-16.054 -6.055,-19.757" /><path
         id="path58"
         style="fill:#22234e;fill-opacity:1;fill-rule:nonzero;stroke:none"
         d="m 59.5352,510.203 c -0.1407,-0.406 -0.4532,-0.535 -0.8633,-0.547 l -45.3242,-1.601 c -0.6407,-0.086 -0.8594,0.293 -0.6954,0.761 l 0.8165,2.383 c 0.2031,0.606 0.3984,0.774 0.9531,0.813 l 39.7226,1.386 0.0469,0.137 -30.6914,25.02 c -0.4141,0.371 -0.4687,0.617 -0.2773,1.164 l 0.8281,2.437 c 0.164,0.473 0.5586,0.649 1.0469,0.254 l 34.8906,-28.887 c 0.3242,-0.253 0.4765,-0.613 0.3359,-1.011 l -0.789,-2.309" /><path
         id="path60"
         style="fill:#22234e;fill-opacity:1;fill-rule:nonzero;stroke:none"
         d="m 33.3164,561.766 c -0.3476,0.168 -0.4687,0.531 -0.2851,0.918 l 1.1093,2.421 c 0.1719,0.391 0.5313,0.547 0.8789,0.372 l 38.8008,-17.801 c 0.3477,-0.164 0.457,-0.528 0.2852,-0.93 l -1.1094,-2.402 c -0.1719,-0.391 -0.5352,-0.543 -0.8828,-0.391 l -38.7969,17.813" /><path
         id="path62"
         style="fill:#22234e;fill-opacity:1;fill-rule:nonzero;stroke:none"
         d="m 46.457,588.016 c -0.3437,0.187 -0.4297,0.57 -0.2187,0.937 l 1.2812,2.324 c 0.2032,0.371 0.5664,0.508 0.9063,0.317 l 37.3047,-20.617 c 0.3398,-0.188 0.4297,-0.567 0.2226,-0.95 l -1.2851,-2.324 c -0.2032,-0.367 -0.5664,-0.496 -0.9063,-0.312 L 46.457,588.016" /><path
         id="path64"
         style="fill:#22234e;fill-opacity:1;fill-rule:nonzero;stroke:none"
         d="m 92.3047,590.203 c -0.3828,-0.098 -0.7422,0.078 -0.7813,0.461 l -0.6093,2.52 c -0.0977,0.418 0.1523,0.769 0.5273,0.847 3.707,1.36 8.4805,4.231 11.7386,8.867 4.484,6.418 4.332,12.383 -0.121,15.489 -3.5473,2.492 -7.7152,2.074 -13.7113,-4.676 l -1.4883,-1.68 c -6.375,-7.187 -12.3633,-8.515 -17.6172,-4.851 -6.2539,4.375 -6.6563,12.008 -1.3086,19.644 3.0937,4.406 7.2773,7.793 11.0078,9.297 0.3711,0.18 0.7266,0.02 0.832,-0.398 l 0.8125,-2.336 c 0.1055,-0.41 -0.1015,-0.703 -0.4687,-0.887 -3.9688,-1.953 -7.0547,-4.434 -9.4414,-7.852 -4,-5.695 -3.4805,-11.046 0.707,-13.972 3.6563,-2.563 7.8594,-1.633 13.4258,4.629 l 1.4844,1.668 c 6.6406,7.453 12.5429,8.664 17.898,4.922 6.094,-4.258 7.067,-12.11 0.563,-21.399 -3.664,-5.234 -9.3477,-9.051 -13.4493,-10.293" /><path
         id="path66"
         style="fill:#22234e;fill-opacity:1;fill-rule:nonzero;stroke:none"
         d="m 115.902,681.023 c -0.261,0.293 -0.218,0.676 0.094,0.969 l 1.973,1.797 c 0.367,0.344 0.769,0.535 1.328,0.344 l 42.312,-10.238 0.161,0.136 -24.332,26.68 c -0.258,0.273 -0.227,0.664 0.089,0.957 l 1.965,1.797 c 0.321,0.285 0.703,0.285 0.969,0 l 28.727,-31.485 c 0.265,-0.281 0.226,-0.671 -0.086,-0.957 l -2.075,-1.89 c -0.316,-0.293 -0.722,-0.492 -1.336,-0.344 l -42.195,10.43 -0.215,-0.196 24.379,-26.71 c 0.262,-0.293 0.231,-0.68 -0.094,-0.965 l -1.961,-1.797 c -0.316,-0.285 -0.707,-0.285 -0.964,-0.012 l -28.739,31.484" /><path
         id="path68"
         style="fill:#22234e;fill-opacity:1;fill-rule:nonzero;stroke:none"
         d="m 189.895,727.48 c -4.211,3.016 -8.926,2.958 -13.934,-0.41 -5.063,-3.41 -6.891,-7.754 -5.668,-12.785 0.437,-1.805 1.555,-4.48 5.527,-10.379 3.981,-5.89 6.055,-7.929 7.563,-9.015 4.195,-3.016 8.93,-2.957 13.98,0.449 5.008,3.371 6.836,7.715 5.617,12.734 -0.441,1.809 -1.554,4.492 -5.535,10.383 -3.976,5.898 -6.039,7.938 -7.55,9.023 z m -9.211,-35.656 c -2.016,1.446 -4.082,3.489 -8.313,9.758 -4.23,6.27 -5.351,8.953 -5.933,11.356 -1.653,6.691 0.957,12.57 7.57,17.023 6.558,4.402 13,4.617 18.582,0.574 2.019,-1.445 4.082,-3.476 8.308,-9.754 4.239,-6.269 5.352,-8.945 5.938,-11.359 1.648,-6.68 -0.957,-12.578 -7.516,-16.981 -6.617,-4.445 -13.054,-4.648 -18.636,-0.617" /><path
         id="path70"
         style="fill:#22234e;fill-opacity:1;fill-rule:nonzero;stroke:none"
         d="m 240.48,717.078 c -0.39,-0.195 -0.707,-0.058 -1,0.235 l -33.175,30.91 c -0.508,0.398 -0.399,0.808 0.05,1.023 l 2.258,1.113 c 0.586,0.286 0.84,0.266 1.254,-0.105 l 29.071,-27.102 0.121,0.059 -3.981,39.394 c -0.027,0.547 0.11,0.762 0.621,1.016 l 2.321,1.133 c 0.449,0.226 0.859,0.059 0.918,-0.555 l 4.214,-45.09 c 0.051,-0.41 -0.093,-0.769 -0.48,-0.957 l -2.192,-1.074" /><path
         id="path72"
         style="fill:#22234e;fill-opacity:1;fill-rule:nonzero;stroke:none"
         d="m 258.801,772.137 c -0.133,0.363 0.047,0.703 0.453,0.859 l 2.488,0.918 c 0.406,0.149 0.77,0 0.899,-0.359 l 14.781,-39.973 c 0.137,-0.371 -0.043,-0.703 -0.453,-0.859 l -2.489,-0.918 c -0.41,-0.145 -0.765,-0.008 -0.894,0.363 l -14.785,39.969" /><path
         id="path74"
         style="fill:#22234e;fill-opacity:1;fill-rule:nonzero;stroke:none"
         d="m 295.043,743.855 c -0.336,0.176 -0.504,0.54 -0.285,0.86 l 1.199,2.305 c 0.195,0.382 0.613,0.488 0.957,0.312 3.691,-1.406 9.18,-2.352 14.68,-0.977 7.594,1.926 11.39,6.555 10.054,11.817 -1.062,4.199 -4.48,6.601 -13.433,5.41 l -2.231,-0.293 c -9.531,-1.269 -14.921,1.641 -16.492,7.852 -1.863,7.402 2.821,13.457 11.875,15.742 5.227,1.308 10.602,1.133 14.403,-0.176 0.402,-0.098 0.57,-0.449 0.367,-0.84 l -0.899,-2.293 c -0.199,-0.383 -0.55,-0.469 -0.941,-0.371 -4.285,1.121 -8.246,1.258 -12.281,0.242 -6.762,-1.707 -9.868,-6.093 -8.618,-11.054 1.094,-4.325 4.864,-6.375 13.184,-5.282 l 2.219,0.301 c 9.89,1.289 15.152,-1.648 16.758,-7.988 1.812,-7.215 -2.59,-13.789 -13.59,-16.57 -6.199,-1.563 -12.992,-0.743 -16.926,1.003" /><path
         id="path76"
         style="fill:#22234e;fill-opacity:1;fill-rule:nonzero;stroke:none"
         d="m 588.121,270.945 c -10.937,4.903 -22.344,8.985 -40.957,20.293 -52.226,31.856 -68.144,79.278 -38.75,161.992 16.992,47.891 25.176,88.278 20.957,131.848 -0.586,0.399 -1.191,0.766 -1.777,1.152 -2.735,-54.718 -22.91,-88.742 -59.063,-146.328 -76.562,-122.011 1.172,-211.425 38.106,-239.238 32.578,16.414 60.547,40.652 81.484,70.281" /><path
         id="path78"
         style="fill:#22234e;fill-opacity:1;fill-rule:nonzero;stroke:none"
         d="m 433.063,444.359 c 59.042,69.489 78.222,101.528 82.226,149.336 -0.644,0.348 -1.269,0.739 -1.894,1.086 C 499.723,537.578 465.406,507.262 375.027,447.059 277.656,382.227 282.039,270.77 306.836,201.395 c 30.195,-15.489 64.363,-24.297 100.621,-24.297 7.715,0 15.352,0.414 22.871,1.191 -70.289,106.652 -65.394,185.859 2.735,266.07" /><path
         id="path80"
         style="fill:#22234e;fill-opacity:1;fill-rule:nonzero;stroke:none"
         d="m 396.969,495.637 c 65.215,28.289 96.133,71.261 105.078,104.914 -0.586,0.277 -1.172,0.535 -1.738,0.797 C 471.91,541.969 415.25,532.07 318.379,519.086 260.945,511.391 216.27,478.48 189.316,437.742 c -2.168,-12.433 -3.339,-25.215 -3.339,-38.269 0,-52.934 18.457,-101.524 49.218,-139.7 -2.734,166.278 83.633,201.969 161.774,235.864" /></g></g></svg>